HIERARCHY
ROOT Hips
{
 OFFSET 0.000000 0.000000 0.000000
 CHANNELS 6 Xposition Yposition Zposition Yrotation Xrotation Zrotation
 JOINT Chest
 {
  OFFSET 0.000000 9.585900 0.002600
  CHANNELS 3 Yrotation Xrotation Zrotation
  JOINT Chest2
  {
   OFFSET 0.000000 9.601200 -0.005300
   CHANNELS 3 Yrotation Xrotation Zrotation
   JOINT Chest3
   {
    OFFSET 0.000000 9.561800 0.000000
    CHANNELS 3 Yrotation Xrotation Zrotation
    JOINT Chest4
    {
     OFFSET 0.000000 9.552100 0.000000
     CHANNELS 3 Yrotation Xrotation Zrotation
     JOINT Neck
     {
      OFFSET 0.000000 14.453000 0.000000
      CHANNELS 3 Yrotation Xrotation Zrotation
      JOINT Head
      {
       OFFSET 0.000000 8.936500 -0.011300
       CHANNELS 3 Yrotation Xrotation Zrotation
       End Site
       {
        OFFSET 0.000000 17.073600 -0.006000
       }
      }
     }
     JOINT RightCollar
     {
      OFFSET -2.921100 9.558500 0.000000
      CHANNELS 3 Yrotation Xrotation Zrotation
      JOINT RightShoulder
      {
       OFFSET -13.519700 0.000000 0.000000
       CHANNELS 3 Yrotation Xrotation Zrotation
       JOINT RightElbow
       {
        OFFSET 0.000000 -29.696600 0.000000
        CHANNELS 3 Yrotation Xrotation Zrotation
        JOINT RightWrist
        {
         OFFSET 0.000000 -24.004700 0.000000
         CHANNELS 3 Yrotation Xrotation Zrotation
         End Site
         {
          OFFSET 0.000000 -17.728500 0.000000
         }
        }
       }
      }
     }
     JOINT LeftCollar
     {
      OFFSET 2.921100 9.558500 0.000000
      CHANNELS 3 Yrotation Xrotation Zrotation
      JOINT LeftShoulder
      {
       OFFSET 13.519700 0.000000 0.000000
       CHANNELS 3 Yrotation Xrotation Zrotation
       JOINT LeftElbow
       {
        OFFSET 0.000000 -29.696600 0.000000
        CHANNELS 3 Yrotation Xrotation Zrotation
        JOINT LeftWrist
        {
         OFFSET 0.000000 -24.004700 0.000000
         CHANNELS 3 Yrotation Xrotation Zrotation
         End Site
         {
          OFFSET 0.000000 -17.728500 0.000000
         }
        }
       }
      }
     }
    }
   }
  }
 }
 JOINT RightHip
 {
  OFFSET -7.771700 -0.012900 -0.001300
  CHANNELS 3 Yrotation Xrotation Zrotation
  JOINT RightKnee
  {
   OFFSET 0.000000 -40.869800 0.001200
   CHANNELS 3 Yrotation Xrotation Zrotation
   JOINT RightAnkle
   {
    OFFSET 0.000000 -39.717900 0.002100
    CHANNELS 3 Yrotation Xrotation Zrotation
    JOINT RightToe
    {
     OFFSET 0.000000 -4.965400 11.033500
     CHANNELS 3 Yrotation Xrotation Zrotation
     End Site
     {
      OFFSET 0.000000 -1.423100 5.872300
     }
    }
   }
  }
 }
 JOINT LeftHip
 {
  OFFSET 7.771700 -0.012900 -0.001300
  CHANNELS 3 Yrotation Xrotation Zrotation
  JOINT LeftKnee
  {
   OFFSET 0.000000 -40.869800 0.001200
   CHANNELS 3 Yrotation Xrotation Zrotation
   JOINT LeftAnkle
   {
    OFFSET 0.000000 -39.717900 0.002100
    CHANNELS 3 Yrotation Xrotation Zrotation
    JOINT LeftToe
    {
     OFFSET 0.000000 -4.965400 11.033500
     CHANNELS 3 Yrotation Xrotation Zrotation
     End Site
     {
      OFFSET 0.000000 -1.423100 5.872300
     }
    }
   }
  }
 }
}
MOTION
Frames: 11
Frame Time: 0.008333
0.000000 85.388000 0.000000 0.000000 -5.767877 0.000000 0.000000 11.653817 0.000000 0.000000 -5.885947 0.000000 0.000000 -0.000000 0.000000 0.000000 -0.000000 0.000000 0.000000 12.528835 0.000000 0.000000 0.711642 0.000000 0.000000 -0.000000 0.000000 0.000000 0.000000 -90.000000 0.000000 -2.309062 0.000000 0.000000 2.309062 0.000000 0.000000 -0.000000 0.000000 0.000000 -0.000000 90.000000 0.000000 -2.309062 0.000000 0.000000 2.309062 0.000000 0.000000 8.520406 0.000000 0.000000 1.905762 0.000000 -0.000000 -4.658285 0.000000 0.000000 -0.000000 0.000000 0.000000 8.520406 0.000000 0.000000 1.905762 0.000000 -0.000000 -4.658285 0.000000 0.000000 -0.000000 0.000000
-9.176063 57.631594 43.779039 -176.874483 -42.491891 -3.319920 0.098678 27.817295 4.044195 -0.110598 5.025943 0.551558 -0.159401 7.932859 0.875648 -0.108338 22.623888 2.504593 1.053047 11.343152 -2.874235 3.239987 -14.626964 -5.978685 0.987289 -0.236935 -0.993189 2.701827 -17.307639 -10.748313 108.425962 -67.851063 -102.473975 20.147694 19.954930 -19.475354 -6.991647 0.657875 -0.346199 15.306161 -9.908270 -8.059916 169.563983 -87.460987 -174.886991 -3.429472 -14.726703 36.412094 6.646874 -30.294252 -5.634025 -7.147996 69.099764 -7.589070 5.018382 12.896081 9.933733 -0.250853 -9.292409 -0.104520 -9.519049 -35.951707 -1.712184 27.984652 62.694372 24.525804 -8.124891 36.471435 5.544052 0.967297 -21.180097 -7.437860
-9.176695 57.632950 43.775875 -176.880013 -42.496032 -3.323405 0.112801 27.814333 4.049596 -0.112824 5.027999 0.553714 -0.148294 7.911860 0.863435 -0.110817 22.640702 2.518711 1.041709 11.346839 -2.872900 3.139275 -14.642489 -5.982636 0.985897 -0.234149 -0.991128 2.689777 -17.311696 -10.761739 108.444944 -67.841181 -102.480616 20.158008 19.945370 -19.484426 -6.979882 0.625241 -0.340129 15.303829 -9.873411 -8.056096 169.219243 -87.471358 -174.555066 -3.414004 -14.728389 36.424901 6.639817 -30.287863 -5.628367 -7.144377 69.098417 -7.582867 5.021086 12.891021 9.932322 -0.254230 -9.289077 -0.108713 -9.525184 -35.945256 -1.702273 28.009818 62.699732 24.547489 -8.135298 36.449753 5.537350 0.972793 -21.184307 -7.436983
-9.179391 57.634914 43.771822 -176.881387 -42.504184 -3.319138 0.115662 27.818862 4.044920 -0.112424 5.027590 0.553025 -0.147617 7.909943 0.863549 -0.108716 22.638776 2.518939 1.004441 11.337880 -2.885908 3.054944 -14.650502 -5.973681 0.987830 -0.242229 -1.002039 2.677775 -17.309373 -10.763977 108.444342 -67.831619 -102.474040 20.162093 19.939008 -19.488759 -6.979073 0.623912 -0.337268 15.308200 -9.870086 -8.062391 168.524845 -87.481253 -173.863245 -3.382816 -14.728117 36.422507 6.624763 -30.275366 -5.634204 -7.114460 69.097625 -7.557236 5.026245 12.882772 9.930898 -0.259012 -9.284541 -0.114243 -9.530849 -35.931334 -1.705684 28.022116 62.706205 24.545968 -8.100726 36.407743 5.561737 0.965744 -21.181153 -7.443365
-9.182685 57.637984 43.766515 -176.894224 -42.521062 -3.304899 0.126293 27.830846 4.038316 -0.103080 5.012039 0.546290 -0.155268 7.923740 0.870079 -0.104337 22.631014 2.512195 0.939781 11.325794 -2.898853 2.994364 -14.652952 -5.961325 0.987090 -0.243118 -1.006110 2.666174 -17.323357 -10.791322 108.428314 -67.867315 -102.449642 20.174022 19.931520 -19.495338 -6.980486 0.630753 -0.330359 15.306134 -9.877172 -8.064209 167.295082 -87.488902 -172.628360 -3.413949 -14.729249 36.415982 6.630487 -30.254806 -5.642227 -7.116296 69.099215 -7.556328 5.026126 12.873911 9.923810 -0.252994 -9.280038 -0.114442 -9.517452 -35.901395 -1.718252 28.003712 62.718613 24.522362 -8.057698 36.323794 5.582730 0.944694 -21.124124 -7.442972
-9.185977 57.639611 43.762868 -176.892542 -42.523127 -3.300340 0.126118 27.823930 4.030534 -0.099588 5.011842 0.544591 -0.157631 7.920431 0.870363 -0.103131 22.628916 2.509758 0.917664 11.330898 -2.896855 2.897243 -14.669343 -5.962219 0.985054 -0.245955 -1.009617 2.657180 -17.321235 -10.798123 108.427816 -67.876149 -102.439044 20.178026 19.922820 -19.510584 -6.985394 0.617091 -0.331050 15.315398 -9.861075 -8.054367 166.806573 -87.493492 -172.146649 -3.412539 -14.722352 36.417720 6.630163 -30.248972 -5.652084 -7.123348 69.100841 -7.559383 5.024041 12.867185 9.915700 -0.249431 -9.277078 -0.111445 -9.508556 -35.892928 -1.730563 27.989156 62.723427 24.509608 -8.043035 36.291133 5.591633 0.939636 -21.115253 -7.443699
-9.188030 57.641367 43.759314 -176.891001 -42.524726 -3.303105 0.136592 27.816795 4.032702 -0.103207 5.012528 0.544603 -0.146390 7.906833 0.862735 -0.100243 22.636000 2.517255 0.872867 11.327051 -2.902598 2.870068 -14.666952 -5.950844 0.984488 -0.248352 -1.011907 2.634826 -17.320062 -10.797570 108.472502 -67.847356 -102.477324 20.150558 19.932698 -19.506515 -6.998612 0.620435 -0.320639 15.322358 -9.858996 -8.053209 166.273060 -87.494434 -171.620088 -3.411060 -14.712431 36.420689 6.616927 -30.243436 -5.652955 -7.090763 69.099365 -7.526246 5.018919 12.865630 9.905349 -0.247366 -9.276375 -0.109960 -9.498321 -35.884024 -1.736982 27.980168 62.727236 24.507304 -8.032688 36.257717 5.598821 0.931280 -21.106399 -7.442101
-9.189746 57.643146 43.756003 -176.886089 -42.525481 -3.309996 0.138033 27.813030 4.033560 -0.101147 5.010968 0.545434 -0.145585 7.904733 0.861842 -0.097318 22.630891 2.512548 0.828730 11.323118 -2.908899 2.755293 -14.682161 -5.947812 1.000078 -0.262921 -1.019686 2.601269 -17.303074 -10.784445 108.477681 -67.853945 -102.474424 20.148595 19.930298 -19.508088 -7.003493 0.622392 -0.315052 15.326246 -9.855447 -8.047029 165.695005 -87.493959 -171.053269 -3.413320 -14.707146 36.425298 6.593626 -30.237136 -5.648144 -7.068854 69.095790 -7.510865 5.025720 12.852781 9.903764 -0.252016 -9.267208 -0.113428 -9.497366 -35.879894 -1.736420 27.989589 62.733380 24.518264 -8.032017 36.231364 5.600601 0.927572 -21.103484 -7.438347
-9.191840 57.644167 43.753792 -176.875011 -42.519024 -3.318411 0.135728 27.801289 4.034878 -0.101781 5.011503 0.544227 -0.146365 7.904736 0.862312 -0.091328 22.619866 2.504278 0.782513 11.323153 -2.911698 2.634008 -14.697230 -5.946719 1.000234 -0.258911 -1.013418 2.579920 -17.306551 -10.786255 108.514324 -67.841047 -102.501120 20.141988 19.934180 -19.522998 -7.010066 0.628863 -0.308851 15.326211 -9.850024 -8.037932 165.222418 -87.490522 -170.589403 -3.410698 -14.706965 36.426093 6.580242 -30.238596 -5.649197 -7.053404 69.093935 -7.497422 5.026902 12.845904 9.905337 -0.253962 -9.263218 -0.115758 -9.498947 -35.882947 -1.737724 27.990057 62.736271 24.522147 -8.034648 36.211904 5.595815 0.931918 -21.101489 -7.433439
-9.194487 57.645418 43.751584 -176.865208 -42.515061 -3.322829 0.135927 27.789566 4.030193 -0.107362 5.016911 0.548664 -0.147375 7.905565 0.863132 -0.088357 22.614398 2.498805 0.697012 11.309739 -2.934431 2.574485 -14.700489 -5.937877 1.004297 -0.261524 -1.014173 2.556817 -17.315550 -10.789063 108.583525 -67.791923 -102.549817 20.106738 19.953849 -19.527708 -7.013285 0.634049 -0.303626 15.328897 -9.851407 -8.035359 165.027835 -87.491029 -170.399681 -3.390226 -14.711611 36.419053 6.571162 -30.237989 -5.653967 -7.035423 69.092441 -7.480472 5.023333 12.843852 9.907633 -0.253101 -9.262824 -0.119375 -9.486334 -35.879822 -1.747306 27.974218 62.735906 24.515412 -8.038463 36.187240 5.589679 0.941296 -21.101220 -7.427595
-9.195699 57.648340 43.747820 -176.872320 -42.526992 -3.325326 0.148260 27.795640 4.038218 -0.107487 5.019955 0.548356 -0.144500 7.902029 0.860733 -0.090181 22.618394 2.502664 0.630952 11.300175 -2.953080 2.488598 -14.707807 -5.935231 1.010466 -0.267347 -1.020893 2.536992 -17.320347 -10.785477 108.624482 -67.767544 -102.580309 20.103413 19.951666 -19.523989 -7.015700 0.624113 -0.310380 15.331101 -9.857436 -8.018463 164.185612 -87.493850 -169.577687 -3.408668 -14.707838 36.433027 6.570354 -30.223556 -5.644837 -7.025056 69.090443 -7.470943 5.025160 12.844843 9.910016 -0.253314 -9.265857 -0.121654 -9.469717 -35.861459 -1.744370 27.995095 62.743853 24.534847 -8.037599 36.139863 5.602184 0.936299 -21.080925 -7.425374
